<mxfile host="app.diagrams.net" agent="Mozilla/5.0 (Macintosh; Intel Mac OS X 10_15_7) AppleWebKit/605.1.15 (KHTML, like Gecko) Version/18.1.1 Safari/605.1.15" version="25.0.3">
  <diagram name="Page-1" id="fBCxJr5UXrpwC9snXGX0">
    <mxGraphModel dx="875" dy="753" grid="1" gridSize="10" guides="1" tooltips="1" connect="1" arrows="1" fold="1" page="1" pageScale="1" pageWidth="827" pageHeight="1169" math="0" shadow="0">
      <root>
        <mxCell id="0" />
        <mxCell id="1" parent="0" />
        <mxCell id="iENwheOLr7V-0xD90-o9-17" value="" style="group" vertex="1" connectable="0" parent="1">
          <mxGeometry x="200" y="375" width="150" height="145" as="geometry" />
        </mxCell>
        <mxCell id="iENwheOLr7V-0xD90-o9-15" value="Container CLI Backend&lt;div&gt;Sqlite&lt;/div&gt;" style="text;html=1;align=center;verticalAlign=middle;resizable=0;points=[];autosize=1;strokeColor=none;fillColor=none;" vertex="1" parent="iENwheOLr7V-0xD90-o9-17">
          <mxGeometry y="105" width="150" height="40" as="geometry" />
        </mxCell>
        <mxCell id="iENwheOLr7V-0xD90-o9-16" value="" style="shape=image;html=1;verticalAlign=top;verticalLabelPosition=bottom;labelBackgroundColor=#ffffff;imageAspect=0;aspect=fixed;image=https://cdn2.iconfinder.com/data/icons/boxicons-logos/24/bxl-docker-128.png" vertex="1" parent="iENwheOLr7V-0xD90-o9-17">
          <mxGeometry x="11" width="128" height="128" as="geometry" />
        </mxCell>
        <mxCell id="iENwheOLr7V-0xD90-o9-21" value="" style="group" vertex="1" connectable="0" parent="1">
          <mxGeometry x="30" y="200" width="150" height="150" as="geometry" />
        </mxCell>
        <mxCell id="iENwheOLr7V-0xD90-o9-4" value="Container GUI Frontend" style="text;html=1;align=center;verticalAlign=middle;resizable=0;points=[];autosize=1;strokeColor=none;fillColor=none;" vertex="1" parent="iENwheOLr7V-0xD90-o9-21">
          <mxGeometry y="120" width="150" height="30" as="geometry" />
        </mxCell>
        <mxCell id="iENwheOLr7V-0xD90-o9-20" value="" style="shape=image;html=1;verticalAlign=top;verticalLabelPosition=bottom;labelBackgroundColor=#ffffff;imageAspect=0;aspect=fixed;image=https://cdn2.iconfinder.com/data/icons/boxicons-logos/24/bxl-docker-128.png" vertex="1" parent="iENwheOLr7V-0xD90-o9-21">
          <mxGeometry x="11" width="128" height="128" as="geometry" />
        </mxCell>
        <mxCell id="iENwheOLr7V-0xD90-o9-31" value="" style="group" vertex="1" connectable="0" parent="1">
          <mxGeometry x="920" y="100" width="128" height="144" as="geometry" />
        </mxCell>
        <mxCell id="iENwheOLr7V-0xD90-o9-22" value="" style="shape=image;html=1;verticalAlign=top;verticalLabelPosition=bottom;labelBackgroundColor=#ffffff;imageAspect=0;aspect=fixed;image=https://cdn1.iconfinder.com/data/icons/unicons-line-vol-3/24/docker-128.png" vertex="1" parent="iENwheOLr7V-0xD90-o9-31">
          <mxGeometry width="128" height="128" as="geometry" />
        </mxCell>
        <mxCell id="iENwheOLr7V-0xD90-o9-23" value="Container-01&lt;div&gt;File Chunks&lt;/div&gt;" style="text;html=1;align=center;verticalAlign=middle;resizable=0;points=[];autosize=1;strokeColor=none;fillColor=none;" vertex="1" parent="iENwheOLr7V-0xD90-o9-31">
          <mxGeometry x="19" y="104" width="90" height="40" as="geometry" />
        </mxCell>
        <mxCell id="iENwheOLr7V-0xD90-o9-32" value="" style="group" vertex="1" connectable="0" parent="1">
          <mxGeometry x="920" y="240" width="128" height="144" as="geometry" />
        </mxCell>
        <mxCell id="iENwheOLr7V-0xD90-o9-27" value="" style="shape=image;html=1;verticalAlign=top;verticalLabelPosition=bottom;labelBackgroundColor=#ffffff;imageAspect=0;aspect=fixed;image=https://cdn1.iconfinder.com/data/icons/unicons-line-vol-3/24/docker-128.png" vertex="1" parent="iENwheOLr7V-0xD90-o9-32">
          <mxGeometry width="128" height="128" as="geometry" />
        </mxCell>
        <mxCell id="iENwheOLr7V-0xD90-o9-28" value="Container-02&lt;div&gt;File Chunks&lt;/div&gt;" style="text;html=1;align=center;verticalAlign=middle;resizable=0;points=[];autosize=1;strokeColor=none;fillColor=none;" vertex="1" parent="iENwheOLr7V-0xD90-o9-32">
          <mxGeometry x="19" y="104" width="90" height="40" as="geometry" />
        </mxCell>
        <mxCell id="iENwheOLr7V-0xD90-o9-33" value="" style="group" vertex="1" connectable="0" parent="1">
          <mxGeometry x="920" y="380" width="128" height="144" as="geometry" />
        </mxCell>
        <mxCell id="iENwheOLr7V-0xD90-o9-29" value="" style="shape=image;html=1;verticalAlign=top;verticalLabelPosition=bottom;labelBackgroundColor=#ffffff;imageAspect=0;aspect=fixed;image=https://cdn1.iconfinder.com/data/icons/unicons-line-vol-3/24/docker-128.png" vertex="1" parent="iENwheOLr7V-0xD90-o9-33">
          <mxGeometry width="128" height="128" as="geometry" />
        </mxCell>
        <mxCell id="iENwheOLr7V-0xD90-o9-30" value="Container-03&lt;div&gt;File Chunks&lt;/div&gt;" style="text;html=1;align=center;verticalAlign=middle;resizable=0;points=[];autosize=1;strokeColor=none;fillColor=none;" vertex="1" parent="iENwheOLr7V-0xD90-o9-33">
          <mxGeometry x="19" y="104" width="90" height="40" as="geometry" />
        </mxCell>
        <mxCell id="iENwheOLr7V-0xD90-o9-34" value="" style="group" vertex="1" connectable="0" parent="1">
          <mxGeometry x="920" y="520" width="128" height="144" as="geometry" />
        </mxCell>
        <mxCell id="iENwheOLr7V-0xD90-o9-35" value="" style="shape=image;html=1;verticalAlign=top;verticalLabelPosition=bottom;labelBackgroundColor=#ffffff;imageAspect=0;aspect=fixed;image=https://cdn1.iconfinder.com/data/icons/unicons-line-vol-3/24/docker-128.png" vertex="1" parent="iENwheOLr7V-0xD90-o9-34">
          <mxGeometry width="128" height="128" as="geometry" />
        </mxCell>
        <mxCell id="iENwheOLr7V-0xD90-o9-36" value="Container-04&lt;div&gt;File Chunks&lt;/div&gt;" style="text;html=1;align=center;verticalAlign=middle;resizable=0;points=[];autosize=1;strokeColor=none;fillColor=none;" vertex="1" parent="iENwheOLr7V-0xD90-o9-34">
          <mxGeometry x="19" y="104" width="90" height="40" as="geometry" />
        </mxCell>
        <mxCell id="iENwheOLr7V-0xD90-o9-38" style="edgeStyle=orthogonalEdgeStyle;rounded=0;orthogonalLoop=1;jettySize=auto;html=1;entryX=0;entryY=0.5;entryDx=0;entryDy=0;startArrow=classic;startFill=1;" edge="1" parent="1" source="iENwheOLr7V-0xD90-o9-20" target="iENwheOLr7V-0xD90-o9-16">
          <mxGeometry relative="1" as="geometry" />
        </mxCell>
        <mxCell id="iENwheOLr7V-0xD90-o9-42" style="edgeStyle=orthogonalEdgeStyle;rounded=0;orthogonalLoop=1;jettySize=auto;html=1;startArrow=classic;startFill=1;" edge="1" parent="1">
          <mxGeometry relative="1" as="geometry">
            <mxPoint x="921" y="164" as="sourcePoint" />
            <mxPoint x="817" y="399" as="targetPoint" />
            <Array as="points">
              <mxPoint x="880" y="164" />
              <mxPoint x="880" y="399" />
            </Array>
          </mxGeometry>
        </mxCell>
        <mxCell id="iENwheOLr7V-0xD90-o9-43" style="edgeStyle=orthogonalEdgeStyle;rounded=0;orthogonalLoop=1;jettySize=auto;html=1;startArrow=classic;startFill=1;" edge="1" parent="1" source="iENwheOLr7V-0xD90-o9-27" target="iENwheOLr7V-0xD90-o9-41">
          <mxGeometry relative="1" as="geometry">
            <Array as="points">
              <mxPoint x="880" y="304" />
              <mxPoint x="880" y="399" />
            </Array>
          </mxGeometry>
        </mxCell>
        <mxCell id="iENwheOLr7V-0xD90-o9-44" style="edgeStyle=orthogonalEdgeStyle;rounded=0;orthogonalLoop=1;jettySize=auto;html=1;startArrow=classic;startFill=1;" edge="1" parent="1" source="iENwheOLr7V-0xD90-o9-29" target="iENwheOLr7V-0xD90-o9-41">
          <mxGeometry relative="1" as="geometry">
            <Array as="points">
              <mxPoint x="880" y="444" />
              <mxPoint x="880" y="399" />
            </Array>
          </mxGeometry>
        </mxCell>
        <mxCell id="iENwheOLr7V-0xD90-o9-45" style="edgeStyle=orthogonalEdgeStyle;rounded=0;orthogonalLoop=1;jettySize=auto;html=1;startArrow=classic;startFill=1;" edge="1" parent="1" source="iENwheOLr7V-0xD90-o9-36" target="iENwheOLr7V-0xD90-o9-41">
          <mxGeometry relative="1" as="geometry">
            <Array as="points">
              <mxPoint x="880" y="644" />
              <mxPoint x="880" y="399" />
            </Array>
          </mxGeometry>
        </mxCell>
        <mxCell id="iENwheOLr7V-0xD90-o9-51" value="" style="group" vertex="1" connectable="0" parent="1">
          <mxGeometry x="556.5" y="110" width="90" height="108" as="geometry" />
        </mxCell>
        <mxCell id="iENwheOLr7V-0xD90-o9-24" value="" style="shape=datastore;whiteSpace=wrap;html=1;" vertex="1" parent="iENwheOLr7V-0xD90-o9-51">
          <mxGeometry x="14" width="60" height="60" as="geometry" />
        </mxCell>
        <mxCell id="iENwheOLr7V-0xD90-o9-26" value="&lt;div&gt;Container&lt;/div&gt;SQL Server" style="text;html=1;align=center;verticalAlign=middle;resizable=0;points=[];autosize=1;strokeColor=none;fillColor=none;" vertex="1" parent="iENwheOLr7V-0xD90-o9-51">
          <mxGeometry y="68" width="90" height="40" as="geometry" />
        </mxCell>
        <mxCell id="iENwheOLr7V-0xD90-o9-53" value="" style="group" vertex="1" connectable="0" parent="1">
          <mxGeometry x="735" y="360" width="90" height="123" as="geometry" />
        </mxCell>
        <mxCell id="iENwheOLr7V-0xD90-o9-41" value="" style="sketch=0;outlineConnect=0;fontColor=#232F3E;gradientColor=none;fillColor=#01A88D;strokeColor=none;dashed=0;verticalLabelPosition=bottom;verticalAlign=top;align=center;html=1;fontSize=12;fontStyle=0;aspect=fixed;shape=mxgraph.aws4.transfer_for_sftp_resource;" vertex="1" parent="iENwheOLr7V-0xD90-o9-53">
          <mxGeometry x="5" width="76" height="78" as="geometry" />
        </mxCell>
        <mxCell id="iENwheOLr7V-0xD90-o9-52" value="&lt;div&gt;Container&lt;/div&gt;SFTP Server" style="text;html=1;align=center;verticalAlign=middle;resizable=0;points=[];autosize=1;strokeColor=none;fillColor=none;" vertex="1" parent="iENwheOLr7V-0xD90-o9-53">
          <mxGeometry y="83" width="90" height="40" as="geometry" />
        </mxCell>
        <mxCell id="iENwheOLr7V-0xD90-o9-58" value="" style="group" vertex="1" connectable="0" parent="1">
          <mxGeometry x="330" y="570" width="141" height="140" as="geometry" />
        </mxCell>
        <mxCell id="iENwheOLr7V-0xD90-o9-56" value="&lt;div&gt;Container&lt;/div&gt;Buffer and Encryption" style="text;html=1;align=center;verticalAlign=middle;resizable=0;points=[];autosize=1;strokeColor=none;fillColor=none;" vertex="1" parent="iENwheOLr7V-0xD90-o9-58">
          <mxGeometry x="1" y="100" width="140" height="40" as="geometry" />
        </mxCell>
        <mxCell id="iENwheOLr7V-0xD90-o9-57" value="" style="group" vertex="1" connectable="0" parent="iENwheOLr7V-0xD90-o9-58">
          <mxGeometry x="16.75" width="106.5" height="102.39999999999998" as="geometry" />
        </mxCell>
        <mxCell id="iENwheOLr7V-0xD90-o9-54" value="" style="dashed=0;outlineConnect=0;html=1;align=center;labelPosition=center;verticalLabelPosition=bottom;verticalAlign=top;shape=mxgraph.webicons.buffer;gradientColor=#DFDEDE" vertex="1" parent="iENwheOLr7V-0xD90-o9-57">
          <mxGeometry width="102.4" height="102.4" as="geometry" />
        </mxCell>
        <mxCell id="iENwheOLr7V-0xD90-o9-55" value="" style="outlineConnect=0;dashed=0;verticalLabelPosition=bottom;verticalAlign=top;align=center;html=1;shape=mxgraph.aws3.data_encryption_key;fillColor=#7D7C7C;gradientColor=none;" vertex="1" parent="iENwheOLr7V-0xD90-o9-57">
          <mxGeometry x="60" y="42.39999999999998" width="46.5" height="60" as="geometry" />
        </mxCell>
        <mxCell id="iENwheOLr7V-0xD90-o9-59" style="edgeStyle=orthogonalEdgeStyle;rounded=0;orthogonalLoop=1;jettySize=auto;html=1;" edge="1" parent="1" source="iENwheOLr7V-0xD90-o9-16" target="iENwheOLr7V-0xD90-o9-54">
          <mxGeometry relative="1" as="geometry">
            <Array as="points">
              <mxPoint x="275" y="630" />
            </Array>
          </mxGeometry>
        </mxCell>
        <mxCell id="iENwheOLr7V-0xD90-o9-60" style="edgeStyle=orthogonalEdgeStyle;rounded=0;orthogonalLoop=1;jettySize=auto;html=1;entryX=0.488;entryY=0.966;entryDx=0;entryDy=0;entryPerimeter=0;" edge="1" parent="1" source="iENwheOLr7V-0xD90-o9-54" target="iENwheOLr7V-0xD90-o9-64">
          <mxGeometry relative="1" as="geometry">
            <mxPoint x="399" y="330" as="targetPoint" />
          </mxGeometry>
        </mxCell>
        <mxCell id="iENwheOLr7V-0xD90-o9-61" style="edgeStyle=orthogonalEdgeStyle;rounded=0;orthogonalLoop=1;jettySize=auto;html=1;entryX=0.002;entryY=0.433;entryDx=0;entryDy=0;entryPerimeter=0;" edge="1" parent="1" source="iENwheOLr7V-0xD90-o9-13" target="iENwheOLr7V-0xD90-o9-70">
          <mxGeometry relative="1" as="geometry">
            <mxPoint x="500" y="350" as="targetPoint" />
            <Array as="points">
              <mxPoint x="490" y="255" />
              <mxPoint x="490" y="365" />
            </Array>
          </mxGeometry>
        </mxCell>
        <mxCell id="iENwheOLr7V-0xD90-o9-62" style="edgeStyle=orthogonalEdgeStyle;rounded=0;orthogonalLoop=1;jettySize=auto;html=1;startArrow=classic;startFill=1;" edge="1" parent="1" source="iENwheOLr7V-0xD90-o9-18">
          <mxGeometry relative="1" as="geometry">
            <mxPoint x="600" y="210" as="targetPoint" />
          </mxGeometry>
        </mxCell>
        <mxCell id="iENwheOLr7V-0xD90-o9-75" value="" style="group" vertex="1" connectable="0" parent="1">
          <mxGeometry x="520" y="290" width="160" height="140" as="geometry" />
        </mxCell>
        <mxCell id="iENwheOLr7V-0xD90-o9-18" value="&lt;div&gt;MQTT Cluster&lt;br&gt;&lt;/div&gt;" style="text;html=1;align=center;verticalAlign=middle;resizable=0;points=[];autosize=1;strokeColor=none;fillColor=none;" vertex="1" parent="iENwheOLr7V-0xD90-o9-75">
          <mxGeometry x="30" width="100" height="30" as="geometry" />
        </mxCell>
        <mxCell id="iENwheOLr7V-0xD90-o9-74" value="" style="group" vertex="1" connectable="0" parent="iENwheOLr7V-0xD90-o9-75">
          <mxGeometry y="25" width="160" height="115" as="geometry" />
        </mxCell>
        <mxCell id="iENwheOLr7V-0xD90-o9-70" value="" style="rounded=0;whiteSpace=wrap;html=1;" vertex="1" parent="iENwheOLr7V-0xD90-o9-74">
          <mxGeometry x="0.75" width="158.5" height="115" as="geometry" />
        </mxCell>
        <mxCell id="iENwheOLr7V-0xD90-o9-73" value="" style="group" vertex="1" connectable="0" parent="iENwheOLr7V-0xD90-o9-74">
          <mxGeometry y="6" width="160" height="106" as="geometry" />
        </mxCell>
        <mxCell id="iENwheOLr7V-0xD90-o9-71" value="" style="group" vertex="1" connectable="0" parent="iENwheOLr7V-0xD90-o9-73">
          <mxGeometry width="80" height="106" as="geometry" />
        </mxCell>
        <mxCell id="iENwheOLr7V-0xD90-o9-65" value="Container&lt;div&gt;MQTT-01&lt;/div&gt;" style="text;html=1;align=center;verticalAlign=middle;resizable=0;points=[];autosize=1;strokeColor=none;fillColor=none;" vertex="1" parent="iENwheOLr7V-0xD90-o9-71">
          <mxGeometry y="66" width="80" height="40" as="geometry" />
        </mxCell>
        <mxCell id="iENwheOLr7V-0xD90-o9-2" value="" style="outlineConnect=0;dashed=0;verticalLabelPosition=bottom;verticalAlign=top;align=center;html=1;shape=mxgraph.aws3.mqtt_protocol;fillColor=#5294CF;gradientColor=none;" vertex="1" parent="iENwheOLr7V-0xD90-o9-71">
          <mxGeometry x="8.5" width="63" height="66" as="geometry" />
        </mxCell>
        <mxCell id="iENwheOLr7V-0xD90-o9-72" value="" style="group" vertex="1" connectable="0" parent="iENwheOLr7V-0xD90-o9-73">
          <mxGeometry x="80" width="80" height="106" as="geometry" />
        </mxCell>
        <mxCell id="iENwheOLr7V-0xD90-o9-1" value="" style="outlineConnect=0;dashed=0;verticalLabelPosition=bottom;verticalAlign=top;align=center;html=1;shape=mxgraph.aws3.mqtt_protocol;fillColor=#5294CF;gradientColor=none;" vertex="1" parent="iENwheOLr7V-0xD90-o9-72">
          <mxGeometry x="8.5" width="63" height="66" as="geometry" />
        </mxCell>
        <mxCell id="iENwheOLr7V-0xD90-o9-66" value="Container&lt;div&gt;MQTT-02&lt;/div&gt;" style="text;html=1;align=center;verticalAlign=middle;resizable=0;points=[];autosize=1;strokeColor=none;fillColor=none;" vertex="1" parent="iENwheOLr7V-0xD90-o9-72">
          <mxGeometry y="66" width="80" height="40" as="geometry" />
        </mxCell>
        <mxCell id="iENwheOLr7V-0xD90-o9-67" style="edgeStyle=orthogonalEdgeStyle;rounded=0;orthogonalLoop=1;jettySize=auto;html=1;entryX=0.5;entryY=1;entryDx=0;entryDy=0;" edge="1" parent="1" source="iENwheOLr7V-0xD90-o9-41" target="iENwheOLr7V-0xD90-o9-70">
          <mxGeometry relative="1" as="geometry">
            <mxPoint x="600" y="439.9999999999999" as="targetPoint" />
            <Array as="points">
              <mxPoint x="710" y="399" />
              <mxPoint x="710" y="470" />
              <mxPoint x="600" y="470" />
            </Array>
          </mxGeometry>
        </mxCell>
        <mxCell id="iENwheOLr7V-0xD90-o9-76" value="" style="group" vertex="1" connectable="0" parent="1">
          <mxGeometry x="349" y="200" width="100" height="120" as="geometry" />
        </mxCell>
        <mxCell id="iENwheOLr7V-0xD90-o9-13" value="" style="sketch=0;outlineConnect=0;fontColor=#232F3E;gradientColor=none;strokeColor=#ffffff;fillColor=#232F3E;dashed=0;verticalLabelPosition=middle;verticalAlign=bottom;align=center;html=1;whiteSpace=wrap;fontSize=10;fontStyle=1;spacing=3;shape=mxgraph.aws4.productIcon;prIcon=mxgraph.aws4.network_load_balancer;" vertex="1" parent="iENwheOLr7V-0xD90-o9-76">
          <mxGeometry x="10" width="80" height="110" as="geometry" />
        </mxCell>
        <mxCell id="iENwheOLr7V-0xD90-o9-64" value="Container&lt;div&gt;Load Balancer&lt;/div&gt;" style="text;html=1;align=center;verticalAlign=middle;resizable=0;points=[];autosize=1;strokeColor=none;fillColor=none;" vertex="1" parent="iENwheOLr7V-0xD90-o9-76">
          <mxGeometry y="80" width="100" height="40" as="geometry" />
        </mxCell>
        <mxCell id="iENwheOLr7V-0xD90-o9-77" style="edgeStyle=orthogonalEdgeStyle;rounded=0;orthogonalLoop=1;jettySize=auto;html=1;entryX=1;entryY=0.5;entryDx=0;entryDy=0;entryPerimeter=0;" edge="1" parent="1" source="iENwheOLr7V-0xD90-o9-70" target="iENwheOLr7V-0xD90-o9-55">
          <mxGeometry relative="1" as="geometry" />
        </mxCell>
      </root>
    </mxGraphModel>
  </diagram>
</mxfile>
